<?xml version="1.0" encoding="UTF-8" standalone="no"?>
<!-- Created with Inkscape (http://www.inkscape.org/) -->

<svg
   width="256"
   height="256"
   viewBox="0 0 256 256"
   version="1.1"
   id="svg1"
   inkscape:version="1.4 (86a8ad7, 2024-10-11)"
   sodipodi:docname="icon.svg"
   xmlns:inkscape="http://www.inkscape.org/namespaces/inkscape"
   xmlns:sodipodi="http://sodipodi.sourceforge.net/DTD/sodipodi-0.dtd"
   xmlns="http://www.w3.org/2000/svg"
   xmlns:svg="http://www.w3.org/2000/svg">
  <sodipodi:namedview
     id="namedview1"
     pagecolor="#ffffff"
     bordercolor="#000000"
     borderopacity="0.25"
     inkscape:showpageshadow="2"
     inkscape:pageopacity="0.0"
     inkscape:pagecheckerboard="0"
     inkscape:deskcolor="#2b2b2b"
     inkscape:document-units="px"
     inkscape:zoom="2.2511407"
     inkscape:cx="56.415842"
     inkscape:cy="105.94629"
     inkscape:window-width="1920"
     inkscape:window-height="1017"
     inkscape:window-x="1912"
     inkscape:window-y="-8"
     inkscape:window-maximized="1"
     inkscape:current-layer="layer1" />
  <defs
     id="defs1">
    <inkscape:path-effect
       effect="copy_rotate"
       starting_point="0,0"
       origin="128,128"
       id="path-effect9"
       is_visible="true"
       lpeversion="1.2"
       lpesatellites=""
       method="normal"
       num_copies="2"
       starting_angle="0"
       rotation_angle="90"
       gap="0"
       copies_to_360="true"
       mirror_copies="false"
       split_items="false"
       link_styles="false" />
    <inkscape:path-effect
       effect="fillet_chamfer"
       id="path-effect7"
       is_visible="true"
       lpeversion="1"
       nodesatellites_param="F,0,0,1,0,5.4340909,0,1 @ F,0,0,1,0,5.5597545,0,1 @ F,0,0,1,0,5.591146,0,1 @ F,0,0,1,0,5.2456441,0,1"
       radius="0"
       unit="px"
       method="auto"
       mode="F"
       chamfer_steps="1"
       flexible="false"
       use_knot_distance="true"
       apply_no_radius="true"
       apply_with_radius="true"
       only_selected="false"
       hide_knots="false" />
    <inkscape:path-effect
       effect="copy_rotate"
       starting_point="0,0"
       origin="128,128"
       id="path-effect5"
       is_visible="true"
       lpeversion="1.2"
       lpesatellites=""
       method="normal"
       num_copies="2"
       starting_angle="0"
       rotation_angle="90"
       gap="0"
       copies_to_360="true"
       mirror_copies="false"
       split_items="false"
       link_styles="false" />
    <inkscape:path-effect
       effect="fillet_chamfer"
       id="path-effect4"
       is_visible="true"
       lpeversion="1"
       nodesatellites_param="F,0,0,1,0,5.4340909,0,1 @ F,0,0,1,0,5.5597545,0,1 @ F,0,0,1,0,5.591146,0,1 @ F,0,0,1,0,5.2456441,0,1"
       radius="0"
       unit="px"
       method="auto"
       mode="F"
       chamfer_steps="1"
       flexible="false"
       use_knot_distance="true"
       apply_no_radius="true"
       apply_with_radius="true"
       only_selected="false"
       hide_knots="false" />
    <inkscape:path-effect
       effect="fillet_chamfer"
       id="path-effect3"
       is_visible="true"
       lpeversion="1"
       nodesatellites_param="F,0,0,1,0,0,0,1 @ F,0,0,1,0,0,0,1 @ F,0,0,1,0,0,0,1 @ F,0,0,1,0,0,0,1"
       radius="0"
       unit="px"
       method="auto"
       mode="F"
       chamfer_steps="1"
       flexible="true"
       use_knot_distance="true"
       apply_no_radius="true"
       apply_with_radius="true"
       only_selected="false"
       hide_knots="false" />
    <inkscape:path-effect
       effect="mirror_symmetry"
       start_point="128,0"
       end_point="128,256"
       center_point="128,128"
       id="path-effect2"
       is_visible="true"
       lpeversion="1.2"
       lpesatellites=""
       mode="vertical"
       discard_orig_path="false"
       fuse_paths="true"
       oposite_fuse="true"
       split_items="false"
       split_open="false"
       link_styles="false" />
    <inkscape:path-effect
       effect="mirror_symmetry"
       start_point="128,0"
       end_point="128,256"
       center_point="128,128"
       id="path-effect1"
       is_visible="true"
       lpeversion="1.2"
       lpesatellites=""
       mode="vertical"
       discard_orig_path="false"
       fuse_paths="true"
       oposite_fuse="true"
       split_items="false"
       split_open="false"
       link_styles="false" />
  </defs>
  <g
     inkscape:label="Layer 1"
     inkscape:groupmode="layer"
     id="layer1">
    <path
       id="path2"
       style="display:inline;fill:#ffffff;fill-opacity:1;stroke:none;stroke-width:8;stroke-opacity:1"
       d="m 81.621096,34.888813 c -28.949668,-5.5e-5 -52.418024,23.468301 -52.417969,52.417969 0.02495,9.647894 2.71215,19.101738 7.765625,27.320308 l 2.366487,3.10753 84.401951,101.28193 91.06585,-100.39215 c 0,0 11.96445,-20.203808 11.99383,-29.76298 5e-5,-28.949614 -23.4683,-52.417969 -52.41796,-52.417919 -19.15772,0.05523 -36.75932,10.557476 -45.90625,27.390625 C 119.59019,46.098102 101.45704,34.895285 81.621096,34.888813 Z"
       sodipodi:nodetypes="cccccccccc" />
    <path
       style="display:none;mix-blend-mode:normal;fill:#f9f9f9;fill-opacity:1;stroke:none;stroke-width:98;stroke-linecap:round;stroke-dasharray:none;stroke-opacity:1"
       id="rect3"
       width="11.936"
       height="72.873619"
       x="122.0319"
       y="91.563187"
       sodipodi:type="rect"
       inkscape:path-effect="#path-effect4;#path-effect5"
       d="m 127.46599,91.563187 h 0.94215 c 3.07057,0 5.55976,2.489187 5.55976,5.559754 v 61.722719 c 0,3.0879 -2.50324,5.59115 -5.59115,5.59115 h -1.09921 c -2.89709,0 -5.24564,-2.34856 -5.24564,-5.24565 V 96.997278 c 0,-3.001166 2.43292,-5.434091 5.43409,-5.434091 z M 91.563187,128.53401 v -0.94215 c 0,-3.07057 2.489187,-5.55976 5.559754,-5.55976 h 61.722719 c 3.0879,0 5.59115,2.50324 5.59115,5.59115 v 1.09921 c 0,2.89709 -2.34856,5.24564 -5.24565,5.24564 H 96.997278 c -3.001166,0 -5.434091,-2.43292 -5.434091,-5.43409 z"
       ry="0"
       transform="matrix(1.417353,0,0,1.417353,-53.421179,-53.421179)" />
    <path
       style="display:none;mix-blend-mode:normal;fill:#f9f9f9;fill-opacity:1;stroke:none;stroke-width:98;stroke-linecap:round;stroke-dasharray:none;stroke-opacity:1"
       id="path5"
       width="11.936"
       height="72.873619"
       x="122.0319"
       y="91.563187"
       sodipodi:type="rect"
       d="m 127.46599,91.563187 h 0.94215 c 3.07057,0 5.55976,2.489187 5.55976,5.559754 v 61.722719 c 0,3.0879 -2.50324,5.59115 -5.59115,5.59115 h -1.09921 c -2.89709,0 -5.24564,-2.34856 -5.24564,-5.24565 V 96.997278 c 0,-3.001166 2.43292,-5.434091 5.43409,-5.434091 z M 91.563187,128.53401 v -0.94215 c 0,-3.07057 2.489187,-5.55976 5.559754,-5.55976 h 61.722719 c 3.0879,0 5.59115,2.50324 5.59115,5.59115 v 1.09921 c 0,2.89709 -2.34856,5.24564 -5.24565,5.24564 H 96.997278 c -3.001166,0 -5.434091,-2.43292 -5.434091,-5.43409 z"
       ry="0"
       transform="matrix(1.417353,0,0,1.417353,-53.421179,-53.421179)"
       inkscape:path-effect="#path-effect7;#path-effect9" />
  </g>
</svg>
